<svg width="31" height="31" viewBox="0 0 31 31" fill="none" xmlns="http://www.w3.org/2000/svg">
<path d="M18.9583 6.70831C18.9583 5.07731 18.9583 4.26181 18.6923 3.61956C18.5164 3.19463 18.2585 2.80853 17.9333 2.48333C17.6081 2.15813 17.222 1.90021 16.7971 1.72431C16.1548 1.45831 15.3393 1.45831 13.7083 1.45831H8.45831C5.15781 1.45831 3.50931 1.45831 2.48381 2.48381C1.45831 3.50931 1.45831 5.15781 1.45831 8.45831V13.7083C1.45831 15.3393 1.45831 16.1548 1.72431 16.7971C1.90021 17.222 2.15813 17.6081 2.48333 17.9333C2.80853 18.2585 3.19463 18.5164 3.61956 18.6923C4.26181 18.9583 5.07731 18.9583 6.70831 18.9583" stroke="black" stroke-width="2.91667"/>
<path d="M25.9583 11.9583H15.4583C13.5253 11.9583 11.9583 13.5253 11.9583 15.4583V25.9583C11.9583 27.8913 13.5253 29.4583 15.4583 29.4583H25.9583C27.8913 29.4583 29.4583 27.8913 29.4583 25.9583V15.4583C29.4583 13.5253 27.8913 11.9583 25.9583 11.9583Z" stroke="black" stroke-width="2.91667"/>
</svg>
