<svg width="38" height="36" viewBox="0 0 38 36" fill="none" xmlns="http://www.w3.org/2000/svg">
<path d="M16.5 17.875L36 17.875M29.5 11.375L36 17.875L29.5 24.375" stroke="white" stroke-width="3.25" stroke-linecap="round" stroke-linejoin="round"/>
<path d="M24.375 24.375L24.375 30.875C24.375 31.737 24.0326 32.5636 23.4231 33.1731C22.8136 33.7826 21.987 34.125 21.125 34.125L4.875 34.125C4.01305 34.125 3.1864 33.7826 2.5769 33.1731C1.96741 32.5636 1.625 31.737 1.625 30.875L1.625 4.875C1.625 4.01305 1.96741 3.1864 2.5769 2.5769C3.1864 1.96741 4.01305 1.625 4.875 1.625L21.125 1.625C21.987 1.625 22.8136 1.96741 23.4231 2.5769C24.0326 3.1864 24.375 4.01305 24.375 4.875L24.375 11.375" stroke="white" stroke-width="3.25" stroke-linecap="round" stroke-linejoin="round"/>
</svg>
