<svg width="23" height="23" viewBox="0 0 23 23" fill="none" xmlns="http://www.w3.org/2000/svg">
<path d="M3.38967 0.558L11.367 8.53533L19.303 0.599333C19.4783 0.412749 19.6895 0.263489 19.9239 0.160502C20.1582 0.057515 20.411 0.00292298 20.667 0C21.2151 0 21.7408 0.217737 22.1284 0.605313C22.5159 0.992888 22.7337 1.51855 22.7337 2.06667C22.7385 2.32004 22.6915 2.57173 22.5955 2.80629C22.4996 3.04084 22.3567 3.25332 22.1757 3.43067L14.1363 11.3667L22.1757 19.406C22.5163 19.7392 22.716 20.1905 22.7337 20.6667C22.7337 21.2148 22.5159 21.7404 22.1284 22.128C21.7408 22.5156 21.2151 22.7333 20.667 22.7333C20.4036 22.7443 20.1408 22.7003 19.8953 22.6042C19.6499 22.5082 19.427 22.3621 19.241 22.1753L11.367 14.198L3.41034 22.1547C3.23571 22.335 3.0271 22.479 2.79654 22.5783C2.56598 22.6777 2.31803 22.7303 2.067 22.7333C1.51889 22.7333 0.993224 22.5156 0.605649 22.128C0.218074 21.7404 0.00033626 21.2148 0.00033626 20.6667C-0.00448216 20.4133 0.0425281 20.1616 0.138482 19.927C0.234437 19.6925 0.377311 19.48 0.558336 19.3027L8.59767 11.3667L0.558336 3.32733C0.217718 2.9941 0.0179848 2.54285 0.00033626 2.06667C0.00033626 1.51855 0.218074 0.992888 0.605649 0.605313C0.993224 0.217737 1.51889 0 2.067 0C2.563 0.0062 3.03834 0.206667 3.38967 0.558Z" fill="white"/>
</svg>
