<svg width="35" height="35" viewBox="0 0 35 35" fill="none" xmlns="http://www.w3.org/2000/svg">
<rect x="1.5" y="1.5" width="32" height="32" rx="16" stroke="white" stroke-width="3"/>
<path d="M17.5 28C15.5703 28 14 26.4297 14 24.5L14.0618 20.9382L10.521 21C8.57033 21 7 19.4297 7 17.5C7 15.5703 8.57033 14 10.5 14L14.0618 13.937L14 10.521C14 8.57033 15.5703 7 17.5 7C19.4297 7 21 8.57033 21 10.5L21.0642 13.937L24.521 14C26.4297 14 28 15.5703 28 17.5C28 19.4297 26.4297 21 24.5 21L21.0642 20.9382L21 24.521C21 26.4297 19.4297 28 17.5 28ZM16.3333 18.6667V24.521C16.3333 25.1428 16.8572 25.6667 17.5 25.6667C18.1428 25.6667 18.6667 25.1428 18.6667 24.5V18.6667H24.521C25.1428 18.6667 25.6667 18.1428 25.6667 17.5C25.6667 16.8572 25.1428 16.3333 24.5 16.3333H18.6667V10.5C18.6667 9.83617 18.1428 9.33333 17.5 9.33333C16.8572 9.33333 16.3333 9.85717 16.3333 10.5V16.3333H10.5C9.83617 16.3333 9.33333 16.8572 9.33333 17.5C9.33333 18.1428 9.85717 18.6667 10.5 18.6667H16.3333Z" fill="white"/>
</svg>
