<svg width="22" height="22" viewBox="0 0 22 22" fill="none" xmlns="http://www.w3.org/2000/svg">
<path d="M21.0385 20.1429C21.533 20.1429 21.9342 20.5441 21.9342 21.0385V21.0503C21.9339 21.5445 21.5328 21.9447 21.0385 21.9447C20.5443 21.9447 20.1432 21.5445 20.1429 21.0503V21.0385C20.1429 20.5441 20.5441 20.1429 21.0385 20.1429Z" fill="#083241"/>
<path d="M10.9671 19.0242C11.4615 19.0242 11.8628 19.4255 11.8628 19.9199V21.0385C11.8626 21.5328 11.4614 21.9342 10.9671 21.9342C10.4728 21.9342 10.0717 21.5328 10.0714 21.0385V19.9199C10.0714 19.4255 10.4727 19.0242 10.9671 19.0242Z" fill="#083241"/>
<path fill-rule="evenodd" clip-rule="evenodd" d="M5.37143 14.5472C6.48361 14.5472 7.38526 15.4494 7.38571 16.5615V19.9186C7.38571 21.0311 6.48389 21.9329 5.37143 21.9329H2.01429C0.902027 21.9327 0 21.0309 0 19.9186V16.5615C0.000457605 15.4495 0.90231 14.5474 2.01429 14.5472H5.37143ZM2.01429 16.3385C1.89116 16.3388 1.79181 16.4384 1.79135 16.5615V19.9186C1.79135 20.0421 1.89088 20.1426 2.01429 20.1429H5.37143C5.49504 20.1429 5.59567 20.0422 5.59567 19.9186V16.5615C5.59522 16.4383 5.49475 16.3385 5.37143 16.3385H2.01429Z" fill="#083241"/>
<path d="M21.0385 14.5472C21.5326 14.5474 21.9327 14.9488 21.9329 15.4429C21.9329 15.9371 21.5328 16.3383 21.0385 16.3385H17.6814C17.3254 16.3386 16.9837 16.4802 16.7319 16.7319C16.4802 16.9837 16.3386 17.3254 16.3385 17.6814V21.0385C16.3383 21.5328 15.9371 21.9329 15.4429 21.9329C14.9488 21.9327 14.5474 21.5326 14.5472 21.0385V17.6814C14.5473 16.8505 14.8776 16.0527 15.4652 15.4652C16.0527 14.8776 16.8505 14.5473 17.6814 14.5472H21.0385Z" fill="#083241"/>
<path d="M10.9671 14.5472C11.4614 14.5472 11.8626 14.9486 11.8628 15.4429V15.4547C11.8624 15.9488 11.4613 16.349 10.9671 16.349C10.4729 16.349 10.0718 15.9488 10.0714 15.4547V15.4429C10.0717 14.9486 10.4728 14.5472 10.9671 14.5472Z" fill="#083241"/>
<path d="M21.0385 10.0714C21.533 10.0714 21.9342 10.4727 21.9342 10.9671V10.9789C21.9339 11.4731 21.5328 11.8733 21.0385 11.8733C20.5443 11.8733 20.1432 11.4731 20.1429 10.9789V10.9671C20.1429 10.4727 20.5441 10.0714 21.0385 10.0714Z" fill="#083241"/>
<path d="M0.907478 10.0714C1.4019 10.0714 1.80315 10.4727 1.80315 10.9671C1.80315 11.4615 1.4019 11.8628 0.907478 11.8628H0.895675C0.401249 11.8628 0 11.4615 0 10.9671C0 10.4727 0.401249 10.0714 0.895675 10.0714H0.907478Z" fill="#083241"/>
<path d="M16.5615 10.0714C17.0559 10.0714 17.4571 10.4727 17.4571 10.9671C17.4571 11.4615 17.0559 11.8628 16.5615 11.8628H15.4429C14.9486 11.8626 14.5472 11.4614 14.5472 10.9671C14.5472 10.4728 14.9486 10.0717 15.4429 10.0714H16.5615Z" fill="#083241"/>
<path d="M10.9671 4.47575C11.4612 4.47599 11.8612 4.87734 11.8615 5.37143V8.72857C11.8615 9.55958 11.5324 10.3572 10.9448 10.9448C10.3572 11.5324 9.55958 11.8615 8.72857 11.8615H5.37143C4.87734 11.8612 4.47599 11.4612 4.47575 10.9671C4.47597 10.473 4.87733 10.0716 5.37143 10.0714H8.72857C9.08472 10.0714 9.42618 9.92985 9.67801 9.67801C9.92985 9.42618 10.0714 9.08472 10.0714 8.72857V5.37143C10.0716 4.87733 10.473 4.47597 10.9671 4.47575Z" fill="#083241"/>
<path fill-rule="evenodd" clip-rule="evenodd" d="M5.37143 0C6.48374 0 7.38548 0.902027 7.38571 2.01429V5.37143C7.38571 6.48389 6.48389 7.38571 5.37143 7.38571H2.01429C0.902027 7.38548 0 6.48374 0 5.37143V2.01429C0.000236152 0.902173 0.902173 0.000236152 2.01429 0H5.37143ZM2.01429 1.79135C1.89103 1.79159 1.79159 1.89103 1.79135 2.01429V5.37143C1.79135 5.49489 1.89088 5.59544 2.01429 5.59567H5.37143C5.49504 5.59567 5.59567 5.49504 5.59567 5.37143V2.01429C5.59544 1.89088 5.49489 1.79135 5.37143 1.79135H2.01429Z" fill="#083241"/>
<path fill-rule="evenodd" clip-rule="evenodd" d="M19.9186 0C21.0309 0 21.9327 0.902027 21.9329 2.01429V5.37143C21.9329 6.48389 21.0311 7.38571 19.9186 7.38571H16.5615C15.4494 7.38526 14.5472 6.48361 14.5472 5.37143V2.01429C14.5474 0.90231 15.4495 0.000457605 16.5615 0H19.9186ZM16.5615 1.79135C16.4384 1.79181 16.3388 1.89116 16.3385 2.01429V5.37143C16.3385 5.49475 16.4383 5.59522 16.5615 5.59567H19.9186C20.0422 5.59567 20.1429 5.49504 20.1429 5.37143V2.01429C20.1426 1.89088 20.0421 1.79135 19.9186 1.79135H16.5615Z" fill="#083241"/>
<path d="M10.9789 0C11.4733 0 11.8746 0.401249 11.8746 0.895675C11.8746 1.3901 11.4733 1.79135 10.9789 1.79135H10.9671C10.4727 1.79135 10.0714 1.3901 10.0714 0.895675C10.0714 0.401249 10.4727 0 10.9671 0H10.9789Z" fill="#083241"/>
</svg>
