<svg width="35" height="35" viewBox="0 0 35 35" fill="none" xmlns="http://www.w3.org/2000/svg">
<rect width="35" height="35" rx="17.5" fill="#F3F4F8"/>
<path d="M25.5 23.833C25.8682 23.833 26.167 24.1318 26.167 24.5V24.5088C26.1667 24.8768 25.868 25.1748 25.5 25.1748C25.132 25.1748 24.8333 24.8768 24.833 24.5088V24.5C24.833 24.1318 25.1318 23.833 25.5 23.833Z" fill="#0A0A0A"/>
<path d="M18 23C18.3682 23 18.667 23.2988 18.667 23.667V24.5C18.6668 24.868 18.3681 25.167 18 25.167C17.6319 25.167 17.3332 24.868 17.333 24.5V23.667C17.333 23.2988 17.6318 23 18 23Z" fill="#0A0A0A"/>
<path fill-rule="evenodd" clip-rule="evenodd" d="M13.833 19.666C14.6612 19.666 15.3327 20.3379 15.333 21.166V23.666C15.333 24.4944 14.6614 25.166 13.833 25.166H11.333C10.5047 25.1658 9.83301 24.4943 9.83301 23.666V21.166C9.83335 20.338 10.5049 19.6662 11.333 19.666H13.833ZM11.333 21C11.2413 21.0002 11.1673 21.0744 11.167 21.166V23.666C11.167 23.758 11.2411 23.8328 11.333 23.833H13.833C13.9251 23.833 14 23.7581 14 23.666V21.166C13.9997 21.0743 13.9248 21 13.833 21H11.333Z" fill="#0A0A0A"/>
<path d="M25.5 19.666C25.8679 19.6662 26.1659 19.9651 26.166 20.333C26.166 20.7011 25.868 20.9998 25.5 21H23C22.7349 21.0001 22.4804 21.1055 22.293 21.293C22.1055 21.4804 22.0001 21.7349 22 22V24.5C21.9998 24.868 21.7011 25.166 21.333 25.166C20.9651 25.1659 20.6662 24.8679 20.666 24.5V22C20.6661 21.3813 20.9121 20.7871 21.3496 20.3496C21.7871 19.9121 22.3813 19.6661 23 19.666H25.5Z" fill="#0A0A0A"/>
<path d="M18 19.666C18.3681 19.666 18.6668 19.965 18.667 20.333V20.3418C18.6667 20.7098 18.368 21.0078 18 21.0078C17.632 21.0078 17.3333 20.7098 17.333 20.3418V20.333C17.3332 19.965 17.6319 19.666 18 19.666Z" fill="#0A0A0A"/>
<path d="M25.5 16.333C25.8682 16.333 26.167 16.6318 26.167 17V17.0088C26.1667 17.3768 25.868 17.6748 25.5 17.6748C25.132 17.6748 24.8333 17.3768 24.833 17.0088V17C24.833 16.6318 25.1318 16.333 25.5 16.333Z" fill="#0A0A0A"/>
<path d="M10.5088 16.333C10.877 16.333 11.1758 16.6318 11.1758 17C11.1758 17.3682 10.877 17.667 10.5088 17.667H10.5C10.1318 17.667 9.83301 17.3682 9.83301 17C9.83301 16.6318 10.1318 16.333 10.5 16.333H10.5088Z" fill="#0A0A0A"/>
<path d="M22.166 16.333C22.5342 16.333 22.833 16.6318 22.833 17C22.833 17.3682 22.5342 17.667 22.166 17.667H21.333C20.965 17.6668 20.666 17.3681 20.666 17C20.666 16.6319 20.965 16.3332 21.333 16.333H22.166Z" fill="#0A0A0A"/>
<path d="M18 12.166C18.3679 12.1662 18.6659 12.4651 18.666 12.833V15.333C18.666 15.9518 18.421 16.5458 17.9834 16.9834C17.5458 17.421 16.9518 17.666 16.333 17.666H13.833C13.4651 17.6659 13.1662 17.3679 13.166 17C13.1662 16.6321 13.4651 16.3332 13.833 16.333H16.333C16.5982 16.333 16.8525 16.2276 17.04 16.04C17.2276 15.8525 17.333 15.5982 17.333 15.333V12.833C17.3332 12.4651 17.6321 12.1662 18 12.166Z" fill="#0A0A0A"/>
<path fill-rule="evenodd" clip-rule="evenodd" d="M13.833 8.83301C14.6613 8.83301 15.3328 9.50473 15.333 10.333V12.833C15.333 13.6614 14.6614 14.333 13.833 14.333H11.333C10.5047 14.3328 9.83301 13.6613 9.83301 12.833V10.333C9.83318 9.50484 10.5048 8.83318 11.333 8.83301H13.833ZM11.333 10.167C11.2412 10.1672 11.1672 10.2412 11.167 10.333V12.833C11.167 12.9249 11.2411 12.9998 11.333 13H13.833C13.9251 13 14 12.9251 14 12.833V10.333C13.9998 10.2411 13.9249 10.167 13.833 10.167H11.333Z" fill="#0A0A0A"/>
<path fill-rule="evenodd" clip-rule="evenodd" d="M24.666 8.83301C25.4943 8.83301 26.1658 9.50473 26.166 10.333V12.833C26.166 13.6614 25.4944 14.333 24.666 14.333H22.166C21.3379 14.3327 20.666 13.6612 20.666 12.833V10.333C20.6662 9.50494 21.338 8.83335 22.166 8.83301H24.666ZM22.166 10.167C22.0744 10.1673 22.0002 10.2413 22 10.333V12.833C22 12.9248 22.0743 12.9997 22.166 13H24.666C24.7581 13 24.833 12.9251 24.833 12.833V10.333C24.8328 10.2411 24.758 10.167 24.666 10.167H22.166Z" fill="#0A0A0A"/>
<path d="M18.0088 8.83301C18.377 8.83301 18.6758 9.13181 18.6758 9.5C18.6758 9.86819 18.377 10.167 18.0088 10.167H18C17.6318 10.167 17.333 9.86819 17.333 9.5C17.333 9.13181 17.6318 8.83301 18 8.83301H18.0088Z" fill="#0A0A0A"/>
</svg>
