<svg width="34" height="24" viewBox="0 0 34 24" fill="none" xmlns="http://www.w3.org/2000/svg">
<path fill-rule="evenodd" clip-rule="evenodd" d="M32.5832 0.732799C33.0519 1.20162 33.3152 1.83739 33.3152 2.5003C33.3152 3.16321 33.0519 3.79898 32.5832 4.2678L13.8449 23.0061C13.5973 23.2538 13.3033 23.4503 12.9797 23.5844C12.6561 23.7184 12.3093 23.7874 11.9591 23.7874C11.6088 23.7874 11.262 23.7184 10.9384 23.5844C10.6149 23.4503 10.3209 23.2538 10.0732 23.0061L0.763221 13.6978C0.524445 13.4672 0.33399 13.1913 0.202967 12.8863C0.0719446 12.5813 0.00297893 12.2533 9.43915e-05 11.9213C-0.00279015 11.5894 0.0604644 11.2602 0.186167 10.9529C0.311869 10.6457 0.497502 10.3665 0.732233 10.1318C0.966965 9.89708 1.24609 9.71145 1.55334 9.58575C1.86058 9.46004 2.18978 9.39679 2.52172 9.39967C2.85367 9.40256 3.18172 9.47152 3.48673 9.60255C3.79174 9.73357 4.0676 9.92402 4.29822 10.1628L11.9582 17.8228L29.0466 0.732799C29.2787 0.500483 29.5544 0.316191 29.8578 0.190454C30.1612 0.0647174 30.4865 0 30.8149 0C31.1433 0 31.4686 0.0647174 31.772 0.190454C32.0754 0.316191 32.3511 0.500483 32.5832 0.732799Z" fill="white"/>
</svg>
